<svg xmlns="http://www.w3.org/2000/svg" version="1" width="241" height="240" viewBox="-0.3 -0.45 240.65 240.1"><path fill="#fccf00" d="M198 61l-4 7-3 8 4-3-5 13q-3 7-3 11l21-18q11-9 19-13l-25 42 17-6-8 7-7 8 6-1 6 1-4 2-4 2 3 2 4 2-5 2 16 7 13 8-18-3h-17l9 8 7 8-11-4-12-2 11 15-4-1-3-1 3 3 2 4-6-3 5 8-9-6-9-5q0 4 3 10 2 7 4 9 2 1 2 3l1 4 1 33q0 5-4 8-3 3-8 3l-6-1-3-3q0-5 4-8 3-3 0-13l-4-13q-9-3-16-11-6-7-8-16l-2 1v7l2 6 1 3-1 3-7 15-7 16-1 4-2 1q0 9-4 12-3 2-8 2l-6-1q-2-1-2-3v-4l3-5v-12l-1-14-2-8-4-10q-6 0-11-3l-8-5-2 12-1 9-1 8-10 24q-2 5-5 6-3 2-8 1-3 0-5-2-2-1-2-4l2-4 4-4q2-2 5-12l2-14v-11l-1-15 80-79 5 1 4 1v-6l4-1 1 8 5-8 4-6-1 7v7l13-18 12-12"/><path fill="#fff" d="M180 104l-13 2-13 3 11 6 9 6q-7-2-23-3l7 6-5-1-5-1 14 11 12 12-16-4-19-6 4 7 4 7-9-6 3 8 4 11-8-7-7-7 3 16 3 17-10-14-9-16-2 9-4-8q-2 4-2 17l-1 21-8-21q-4-10-5-20l-14 22 1-8 1-9-12 14-10 13q0-8 4-19 2-10 6-17-6 2-15 8l-14 10 8-15q4-8 9-13-5 1-12 6l5-12-10 3-10 3 9-9 11-9H36l-14 3q6-5 15-9 7-4 14-5l-9-6-10-4 10-1h10l-10-8 12-1q-6-3-11-8l-7-7h10l8-1 15-13-1-10 5 6 5 4V46l2-8 2 6 3 6 1-1 1 3 8-12v5l1 6 8-2 7-9 7-7-1 9v11l2-1-1 2 7-5 6-4-3 12 20 14 12-1-8 5-6 4h13l10 2q-5 1-9 4l-7 4 10 2-13 3q7 1 17 5l13 5"/><path fill="#fccf00" d="M212 2l-9 18q-8 14-16 24l5-1h4q-7 8-26 17-16 9-32 15l7 1-8 4q-5 3-9 3v7l11-2-8 8 6 2 6 3-13 5 4 5 4 5-11-3 1 7-5-4-17 8q-9 4-15 4-5 0-15-6-9-5-9-7l-4 3 1-7-12 1 9-6-10-7 11-1-4-8 6 3 1-13-9-3-6-3 9-1-23-12q-15-9-20-14l8 1-14-25Q3 9 1 1q8 2 28 13 18 11 23 16t22 36l1-7 3 5 4-7 4-7 4 10 7-11 8-9-2 20 5-5-1 5 12-8-2 7-1 6 5-4 5-1q14-22 18-26 10-10 32-21 22-9 36-11"/><path fill="#0d131a" d="M69 85q6 2 10 7t4 12q-3 1-7-1-4-1-5-3l-2-7v-8M104 94q5-7 18-8l-1 9q-1 5-3 6-2 3-7 3h-9l1-5 1-5M23 35L13 14l18 9 16 12 11 15 10 17-4-3-4-3 2 4 3 4q-9-3-19-9L33 50 23 35M188 32q-9 14-14 18-6 6-22 13l-24 11 3-4 3-4-9 4q18-28 23-33 6-6 24-15 17-8 27-10-3 8-11 20"/><path fill="#fff" d="M77 90l2 1 1 3v3l-1 1h-2l-2-3 1-3 1-2M109 91h2l1 4-1 3-2 1-2-1-1-3 1-3 2-1"/><path fill="#dab300" d="M1 1l5 7 6 5 10 20 10 16q3 4 14 11 10 6 19 9l-3-4-1-2 4 4 4 5q2 1 0 3l-4 1-23-12Q24 54 17 48q4 2 9 2L11 25Q3 10 1 1M86 50l4 10-2 3-2-13M75 60l2 2 1 3-1 1-1-1-1-5M50 74l16 4-1 2q-4 0-9-3l-6-3M104 51l-1 9-1 1-1-1 1-10 2-9v10M108 55l-1 6h-1v-1l2-5M118 53l-2 12h-1l-1-1 1-6 3-5M128 80l8-2 9-3-9 5q-5 3-8 3v-3M206 7l5-5q-4 13-24 42h-2l-3 1v2l6-1 8-2q-9 9-32 19-20 10-37 15h-4q-2-1-1-2l4-4 6-5-3 4-2 3q12-4 25-11 15-7 20-11 6-5 15-19 9-13 13-22l6-4M59 90l5 7v1l-2 1q-3-5-3-9M52 99l10 5 1 1-1 1q-7-3-10-7M53 112l13-3 1 6-4 3 1-7-6 1h-5M138 88l-8 9-1-1 1-2 8-6M142 100l-13 6v-2l1-1 12-3M138 115l-11-2v-1h2l4 1 5 2M124 114l4 6-5-5 1-1M151 162v3l2 3-9 5-9 4-1-10q9-1 17-5M103 179q-5-2-10-7l-8-8 10-15 3 15 5 15M111 178l-3-5 3-21 5 8 1-9 7 13 10 14v6l-15-23-2 9-5-9-1 9v8"/><path fill="#dab300" d="M144 161l2 5-8-7-7-6-2-5 15 13M138 143l7 5 3 6-8-5-2-6M170 144l5 6-15-5-18-5-3-5 14 4 17 5M153 123l6 6-3-1-8-6 5 1M166 120l9 5-19-2-5-5 15 2M173 105l4 2 3 2-19 4-7-3 9-3 10-2M154 93l9 2-4 1-9-2 4-1M108 173l4 8-4-1v-7M188 169l-6-4-6-3 1 3 2 3-6-3 3 5-10-8-13-9 10 3 10 6-3-5 6 3-3-5 8 4 7 4v6"/><path fill="#dab300" d="M172 162l-10-6-9-3-1-2h3l9 4 8 7M167 153l8 6-5-2-3-4M189 164q-11-7-17-9v-2h3l15 9 15 12-16-10M198 165l-1-1 2-1 5 4-6-2M200 162v-1l2-1q3 1 5 4l-7-2M219 154l-10-3-12-2-2-3 13 3 11 5M204 139l-3-3 19 1 18 4-17-2h-17M214 125l-3 2-8-3 11 1M215 117q-6 3-7 5l-1-1q-1-1 1-2l7-2M218 103l-8 7-7 7h-1v-2l7-6q4-4 9-6M212 86l15-20-25 42-5 2 15-24M195 73l-5 12-3 12-3 3 4-15q4-9 7-12M198 62l-4 7-4 8h-1v-2l4-6 5-7M174 77l-1 6v8l-2 3q0-12 3-17M162 84l2-1 2 10-1 2-1-2-2-9M72 176l-1-9 12-13-2 17 4-7 4 5 4 4-2 13-1 9v4l-2 4-4 10-5 13q-2 6-7 7h-8l-4-3v-4q1 3 6 3 6 1 9-3l3-7 4-10q3-8 3-13 0-9-4-14-3-5-9-6M132 176l2 2v10l2 10v11l-1 18q0 12-13 11-3 0-5-2t-1-4q1 4 7 3 7-1 8-6l2-17v-14l-1-8v-14"/><path fill="#dab300" d="M135 192l-1-7v-7l2 2-1-3 16-8v7l2 7 1 3-2 3-6 16-6 14-4 5v-6l3-6 2-8q1-3-1-7-2-5-5-5M189 173l2 4 4 5 1 3 1 3v15l1 19q0 6-4 9-5 3-11 2l-5-3v-4q0 2 2 3h6l6-2 2-6v-29q0-5-2-8t-3-11"/><path fill="#dbdcdc" d="M69 57l-1-10q3 6 4 15l-3-5M80 38v20h-2V47l2-9M96 51l-3 4 2-15 1 11M118 33l-1 10v10l-3 2 1-12 3-10M128 56l-2 4-4 1q5-11 9-16l-3 11M160 70l-15 10-5 1-1-2 1-1 5-3 7-2 8-3M161 84l-8 5h-2l-1-1 1-1 8-4 9-2-7 3M147 94q11-4 16-3l-12 3h-4M167 106l-13 4-6-3 16-3h16l-13 2M163 117l10 4-13-2-10-1v-1l2-1 11 1M142 118l7 2 8 4-9-2-6-4M137 132l19 5q12 4 17 8l-17-5-17-5-2-3M136 137l12 12q-7-3-10-6l-2-6M128 142l8 9 9 10-16-13-1-6M116 151l2-1q1-1 2 1l8 13 7 16-10-15-9-14M116 160l-3-4-3-5 1-1 2 2 3 8M93 144q0-2 2-2t2 3l5 21 6 23-9-24-6-21"/><path fill="#dbdcdc" d="M81 171l6-14q3-8 7-12l1 4-7 10-7 12M72 166l-11 15q3-8 11-19l12-13-1 5-11 12M73 139l-2 6q-7 2-15 8l-14 10q5-7 16-14l15-10M47 141l6-6 10-5-4 5q-5 1-12 6M43 131l-10 3 10-5 9-2 2 1-1 2-10 1M52 117H40q-10 0-17 2 7-3 16-4h12l2 1q1 1-1 1M44 99l10 7h-3l-10-6q-4-3-9-4 6 0 12 3M42 87l8 4 6 4h-4l-6-4-4-4M45 80q-7-6-8-9l9 7 10 7q2 1 1 2 0 2-2 1l-10-8M65 116l2-1 3 3q3 3 10 6l11 4q5 0 15-4 11-4 17-9l2 3q-5 6-16 11-12 5-18 4-6 0-15-6-8-5-11-11"/><path fill="#0d131a" d="M89 111l1-1 2 1-1 1h-2v-1M57 90h1l6 2q-1-7 1-13v-1l1 1q-2 8-1 14v1h-1l-5-2 4 6-1 1-10 1 5 3 5 2v1l-8 5h11l-2 6 4-3v1l-4 3h-1l2-6-12 1v-1l8-6-10-6q-1-1 1-1l10-1-4-8"/><path fill="#0d131a" d="M66 110l3 6 11 7q8 4 11 4 5 0 15-4 11-4 17-9h1v1q-6 6-17 10-10 4-16 3-3 0-11-4-9-4-12-7-2-2-3-7l1-1v1M69 86l-1-1h1l7 3q4 3 5 6 3 4 2 10v1l-1-1q0-6-2-10-1-3-5-5-3-3-6-3"/><path fill="#0d131a" d="M69 85l1 1v7q0 5 2 7l4 2q4 2 7 1v1h-8l-4-4-3-6 1-9M112 88q-4 2-6 5-3 4-4 11v0-6l3-5q2-4 7-6l10-2 1 1h-1l-10 2"/><path fill="#0d131a" d="M120 94l1-8h1l-1 9q-1 5-3 7t-8 3h-8v-1h8q5-1 7-3t3-7M80 115l-1-1h1q2 3 6 2l5-1 7 2h3l4-3h1l-1 1q0 2-2 3h-5l-7-1h-9l-2-2M129 91l-1 2v-2l-1-10 1-1v1l1 10M31 49q-4-4-11-17l-8-18q-1-1 1-1l18 10 16 11q5 5 12 17l10 16v1h-1l-7-6 4 7 1 1h-1l-18-9q-12-6-16-12m26 0L46 35 32 25 14 15l8 18 10 16 14 11 17 8q-3-3-4-7v-1l1 1q4 1 7 4L57 49"/><path fill="#0d131a" d="M53 29l11 18 11 21v1l-1-1-11-21-11-16q-5-5-23-16Q12 5 2 2l10 23q7 14 14 24l1 2-2-1-15-25Q3 11 0 1l1-1q10 3 27 13 19 10 25 16"/><path fill="#0d131a" d="M24 47l1 2-7-1q7 6 23 15l24 12 1 1h-2L38 63Q21 53 15 47v-1h1l4 1h4M212 1h1v1l-11 21-14 21h-2q6-7 14-21l11-20q-14 2-35 12t-31 19q-3 2-11 15l-14 23h-1v-1l14-24q8-12 11-14 10-10 32-20t36-12"/><path fill="#0d131a" d="M185 44l6-1h7l-1 1q-10 9-34 21-23 11-35 13h-1l1-1q14-4 33-13 22-10 34-20h-11 1"/><path fill="#0d131a" d="M186 34q9-13 12-21-11 3-27 11t-22 13l-23 31 8-3h1v1l-6 7 25-11q12-6 18-11 5-3 14-17m-15-12q17-8 29-11v1q-3 8-12 21-10 15-15 19l-19 11-27 12v-1l5-7-7 4h-1v-1q19-29 24-34 7-6 23-14M85 49h2l3 10-1 2-3-10-4 7-3 7h-1l-3-4-1 7-1-2 1-7h1l3 4 7-14"/><path fill="#0d131a" d="M104 40l1-1v2l-1 17 3-3h1v4l10-7h1l-2 11 10-4-1 1-10 5h-1l2-11-9 7h-1v-5l-4 4 1-18-8 10-7 11-1 1v-2l7-12 9-10M86 50l-1 1-5-11-1 17-1 1-5-4-4-4 1 8-2-2-1-8q0-3 2-1l4 5 4 4q0-11 2-18 0-3 1 0l6 12"/><path fill="#0d131a" d="M104 48l13-15 1-1v1l-1 11v9l-1 1v-9l1-10q-8 7-13 15v-2M131 44h1v1l-3 11-2 2 1-6 2-5-12 8v-2l13-9M136 75h11l-1 1q-8 5-18 8v-1l16-7-8-1"/><path fill="#0d131a" d="M144 80l14-9-13 1 4-2h13l-1 1-15 9h-2"/><path fill="#0d131a" d="M169 80l1 1-1 1q-7 2-15 7h-3q7-5 15-8l-13-1-12 1-1-1h1q5-2 14-2l14 2"/><path fill="#0d131a" d="M163 90l1 1-1 1-12 3-2-1 11-3-9-2-1-1h1l12 2"/><path fill="#0d131a" d="M165 106l12-2-15-6-15-4h-1l2-1 16 4q11 3 16 6l1 2h-1l-12 2-13 3-2-1 12-3"/><path fill="#0d131a" d="M163 113q8 4 12 8l1 1h-1q-12-3-22-3l5 5q2 2 0 1l-9-2-2-2 9 2-6-5 1-1 10 1 11 2-11-7-12-5h-1l1-1 14 6M138 144l-1-2 9 5-9-14v-1l1 1 10 16 1 1h-2l-9-6"/><path fill="#0d131a" d="M135 138v-1l1 1 5 11 5 13v1h-1l-15-14-1-2 14 12-8-21"/><path fill="#0d131a" d="M127 143l1-2v1q3 7 5 20 3 12 3 19v1l-1-1-10-14-8-14-1 8v1l-1-1-4-8-2 19v19l-2-1q-4-8-8-22-5-14-6-24l1-1v1l5 21 8 21 1-16 2-19h1l4 8 1-8v-1l1 1 17 27-2-18-5-17"/><path fill="#0d131a" d="M81 173l-1-2q1-13 4-21v-1l1 1q-3 8-3 18l13-20v1l-7 12-6 10-1 2"/><path fill="#0d131a" d="M73 140v-1 1l-7 20-4 18 11-14 10-11v2l-21 26q-3 3-2-1 4-27 13-40"/><path fill="#0d131a" d="M71 144l-1 2-13 8-14 10h-1v-2q3-9 9-17 6-10 13-16l1-1v1l-12 15-9 16 14-9 13-7"/><path fill="#0d131a" d="M53 105l1 1h-1q-14 3-28 12l15-2 12 1h0q-8 5-17 16l9-3 9-1h1-1l-4 11 6-4 5-3-1 2-11 7-2 1v-2l5-11-9 2-9 3-2 1 1-2q9-11 18-16H36l-14 2h-1l1-1q4-4 13-8 10-5 18-6"/><path fill="#0d131a" d="M32 96l-1-1h1l12-1h11l1 1h-1l-20 1q8 3 17 10h-2l-8-5-10-5"/><path fill="#0d131a" d="M53 95h-2l-10-7-1-1h1l13-1 1 1-12 1 10 7"/><path fill="#0d131a" d="M35 71v-1h18l2 1-17 1q5 6 18 15v1h-1l-12-9-8-8"/><path fill="#0d131a" d="M59 73l2 1H51l14 6v1q-11-3-16-7l-1-1h11M160 85l1-1-1 6h-1l1-5M166 93v1l-1-1-2-10h1l2 10"/><path fill="#0d131a" d="M173 76l1-1 1 1q-2 6-2 15l-1 1v-6l1-7-4 6-4 8v-2q3-9 8-15"/><path fill="#0d131a" d="M192 71l4-7-13 14-11 15-1 1v-1q14-23 27-33h1v2l-7 13 3-2 1-1v2q-3 4-5 12l-4 10-1 2q3-15 8-23l-3 2h-1l2-6"/><path fill="#0d131a" d="M227 67l-12 21-13 20h-2l24-39q-8 4-21 15l-19 17h-2l1-1q6-8 21-19 14-11 22-15l2-1-1 2"/><path fill="#0d131a" d="M219 102h2l-2 1-14 13h11l1 1-1 1-7 3 6 4v1l-4 1-2-1 4-1-5-3-1-1h1l6-3-6-1h-5l6-7 7-6-22 7h-1l1-1q11-5 25-8"/><path fill="#0d131a" d="M205 139l-1-1 15 1q11 0 17 2l-16-9-16-7-1-1h1l19 7 16 10 1 1h-2l-17-2-16-1"/><path fill="#0d131a" d="M201 137v-1h1l10 9 9 9q2 3-1 2l-23-7-1-1 22 5-17-16"/><path fill="#0d131a" d="M193 144l-1-2 1 1 8 10 8 11v1h-1l-6-2 4 5q1 2-1 1l-7-4-1-1 7 3-1-2-3-3q-1-1 1-1l6 2-7-10-7-9"/><path fill="#0d131a" d="M199 165l2 1 4 7q2 3-1 2l-15-11-15-8 3 4v1h-1l-6-4-1-1 6 3-3-4v-1h1l15 8 16 11-5-8"/><path fill="#0d131a" d="M165 152v-1l1 1q6 6 8 11 2 2-1 1l-9-6-11-5-1-1h2q6 2 19 10l-8-10M152 167l1 2q-9 6-18 9v-2q10-4 17-9"/><path fill="#0d131a" d="M187 162l1 1 2 10q2 5 6 9l1 3 1 3v18l1 16q0 4-2 7t-6 4l-8 1q-4-1-6-4v-4l4-6q2-2 0-11l-4-12-1-1-1-1q-9-3-16-12-6-8-9-22v-2l1 2q4 13 10 21 6 9 15 12h1l1 2q3 4 4 13 2 9 0 12-3 2-4 5l1 4q1 2 5 2h6q3-1 5-4l2-6-1-17v-17-3l-2-2-5-10-2-11"/><path fill="#0d131a" d="M183 232h-3v-3l1-3 1-1v1l-1 4q0 2 2 2M190 232l-3 1q-2-1-2-3l2-4v1 3q1 3 3 2M108 181v-2l3 1 1 2-4-1M103 178l1 2q-6-2-11-6t-8-10l1-1 7 9 10 6"/><path fill="#0d131a" d="M115 192l-7-17v-5q10 23 11 33 2 19 0 22l-3 9q1 3 6 4 6 0 9-2 3-3 3-8 2-27 1-30-3-15-2-21l1 1 1 11 2 9v13l-1 17q0 7-4 9-4 3-10 2t-7-4q-1-4 3-10l1-9-1-13-3-11"/><path fill="#0d131a" d="M119 238l-1-4q0-2 2-3l1-1v1q-2 2-1 4 0 2 2 3h-3M128 237l-3 1-1-3q-1-3 1-4l1-1v1q-2 2-1 4 1 3 3 2M150 170l2-1q-1 7 2 14 2 2 0 5-6 11-14 34l-2 2-3 2v-2l3-3 15-34v-4l-2-6-1-7M71 233h-3l-1-3q0-3 2-5h1l-1 1-1 5q1 2 3 2"/><path fill="#0d131a" d="M71 193v-25l1-2 1 14v13l-1 8-2 8-3 8-3 4q-4 3-4 6t3 4q4 3 8 2 5-2 8-8l9-23 1-6 1-10 3-14 1 1q-3 15-3 23 0 4-2 7l-9 22q-2 8-8 9-5 1-10-1-3-2-3-5-1-4 4-8 4-4 6-11l1-7 1-9"/><path fill="#0d131a" d="M65 232h-3v-3l1-4h1v1l-1 3q0 3 2 3M132 96l12 4v1l-13 5 8 9v1h-1l-10-2v7l-6-5 1-1 4 4v-6q0-1 0 0l9 1-7-8v-1l12-4-10-4-1-1 7-8-9 3v-2l11-2h1v1l-8 8M96 40v10l-1 2V42l-7 11-1-1q4-8 8-12l1-1v1M175 145v1h-1l-34-10-1-2 33 10q-6-7-15-14-9-8-15-11v-1h1l16 12 16 15"/></svg>